<svg width="90" height="90" viewBox="0 0 90 90" fill="none" xmlns="http://www.w3.org/2000/svg">
<path d="M86.2502 55.708H83.749C82.8115 55.708 81.8816 55.7894 80.9554 55.9522L54.534 33.3108L60.8637 26.3864C62.3599 24.7496 62.4124 22.0329 60.98 20.3276C59.5438 18.6179 57.1664 18.5622 55.6777 20.1947L40.0296 37.3129C39.2496 38.2042 38.1884 38.6626 37.0747 38.5555C35.9573 38.4527 34.9748 37.8057 34.3036 36.7344C33.2761 35.1062 33.5911 32.5567 34.9335 31.0184L52.5691 12.0406C55.9102 8.4541 61.1337 7.5757 65.221 9.91954L73.9057 14.8815C76.4931 16.3597 79.3954 17.1396 82.2866 17.1396H86.2464C88.3201 17.1396 89.9963 15.2242 89.9963 12.8547C89.9963 10.4851 88.3201 8.5698 86.2464 8.5698H82.2866C80.5504 8.5698 78.8067 8.10274 77.2543 7.21577L68.5771 2.25386C61.7374 -1.65825 53.004 -0.205675 47.4243 5.80175L45.1069 8.29556L42.482 5.5618C39.0359 1.97534 34.5736 0 29.77 0C26.8789 0 23.9953 0.779851 21.4191 2.24957L12.742 7.21148C11.1858 8.09846 9.44211 8.56551 7.70593 8.56551H3.75359C1.67993 8.56551 0.00374984 10.4809 0.00374984 12.8504C0.00374984 15.22 1.67993 17.1353 3.75359 17.1353H7.71343C10.6046 17.1353 13.5069 16.3512 16.0981 14.8772L24.7827 9.91526C28.6151 7.71282 33.9998 8.30842 37.4347 11.8949L39.6359 14.1873L29.7138 24.8653C25.6902 29.4587 25.049 36.7216 28.2213 41.7392C30.1712 44.8372 34.0448 47.1339 37.3859 47.1339C40.3596 47.1339 43.2132 45.797 45.2756 43.436L49.048 39.3097L72.8445 59.7015C72.7282 59.7958 49.6029 79.6091 49.6029 79.6091C46.8918 82.0172 43.1082 82.0172 40.3408 79.562L17.5005 59.9886C14.2794 57.2248 10.2821 55.7037 6.25099 55.7037H3.74984C1.67618 55.7037 0 57.619 0 59.9886C0 62.3581 1.67618 64.2735 3.74984 64.2735H6.25099C8.66964 64.2735 11.0658 65.1862 13.0007 66.8444L35.7885 86.375C38.5071 88.7917 41.7658 90 45.0169 90C48.2492 90 51.4779 88.8045 54.1552 86.4221L77.003 66.8487C78.9342 65.1904 81.3304 64.2778 83.749 64.2778H86.2502C88.3238 64.2778 90 62.3624 90 59.9929C90 57.6233 88.3238 55.708 86.2502 55.708Z" fill="white"/>
</svg>
