<svg width="70" height="70" viewBox="0 0 70 70" fill="none" xmlns="http://www.w3.org/2000/svg">
<path d="M54.0909 70H15.9091C11.6913 69.9954 7.64768 68.4574 4.66525 65.7235C1.68281 62.9896 0.00505227 59.283 0 55.4167V14.5833C0.00505227 10.717 1.68281 7.01038 4.66525 4.27647C7.64768 1.54257 11.6913 0.00463125 15.9091 0L54.0909 0C58.3087 0.00463125 62.3523 1.54257 65.3348 4.27647C68.3172 7.01038 69.9949 10.717 70 14.5833V55.4167C69.9949 59.283 68.3172 62.9896 65.3348 65.7235C62.3523 68.4574 58.3087 69.9954 54.0909 70ZM15.9091 5.83333C13.3775 5.83333 10.9496 6.75521 9.15944 8.39615C7.36932 10.0371 6.36364 12.2627 6.36364 14.5833V55.4167C6.36364 57.7373 7.36932 59.9629 9.15944 61.6039C10.9496 63.2448 13.3775 64.1667 15.9091 64.1667H54.0909C56.6225 64.1667 59.0504 63.2448 60.8406 61.6039C62.6307 59.9629 63.6364 57.7373 63.6364 55.4167V14.5833C63.6364 12.2627 62.6307 10.0371 60.8406 8.39615C59.0504 6.75521 56.6225 5.83333 54.0909 5.83333H15.9091ZM47.7273 29.1667H22.2727C19.7411 29.1667 17.3132 28.2448 15.5231 26.6039C13.733 24.9629 12.7273 22.7373 12.7273 20.4167C12.7273 18.096 13.733 15.8704 15.5231 14.2295C17.3132 12.5885 19.7411 11.6667 22.2727 11.6667H47.7273C50.2589 11.6667 52.6868 12.5885 54.4769 14.2295C56.2671 15.8704 57.2727 18.096 57.2727 20.4167C57.2727 22.7373 56.2671 24.9629 54.4769 26.6039C52.6868 28.2448 50.2589 29.1667 47.7273 29.1667ZM22.2727 17.5C21.4289 17.5 20.6195 17.8073 20.0228 18.3543C19.4261 18.9013 19.0909 19.6431 19.0909 20.4167C19.0909 21.1902 19.4261 21.9321 20.0228 22.4791C20.6195 23.026 21.4289 23.3333 22.2727 23.3333H47.7273C48.5711 23.3333 49.3805 23.026 49.9772 22.4791C50.5739 21.9321 50.9091 21.1902 50.9091 20.4167C50.9091 19.6431 50.5739 18.9013 49.9772 18.3543C49.3805 17.8073 48.5711 17.5 47.7273 17.5H22.2727ZM15.9091 37.9167C15.2798 37.9167 14.6646 38.0877 14.1414 38.4082C13.6181 38.7287 13.2103 39.1842 12.9695 39.7172C12.7287 40.2501 12.6656 40.8366 12.7884 41.4023C12.9112 41.9681 13.2142 42.4878 13.6592 42.8957C14.1042 43.3036 14.6711 43.5814 15.2883 43.694C15.9056 43.8065 16.5453 43.7487 17.1267 43.528C17.7081 43.3072 18.2051 42.9334 18.5547 42.4538C18.9043 41.9741 19.0909 41.4102 19.0909 40.8333C19.0909 40.0598 18.7557 39.3179 18.159 38.7709C17.5623 38.224 16.753 37.9167 15.9091 37.9167ZM28.6364 37.9167C28.0071 37.9167 27.3919 38.0877 26.8686 38.4082C26.3454 38.7287 25.9376 39.1842 25.6967 39.7172C25.4559 40.2501 25.3929 40.8366 25.5157 41.4023C25.6385 41.9681 25.9415 42.4878 26.3865 42.8957C26.8315 43.3036 27.3984 43.5814 28.0156 43.694C28.6328 43.8065 29.2726 43.7487 29.854 43.528C30.4354 43.3072 30.9323 42.9334 31.2819 42.4538C31.6316 41.9741 31.8182 41.4102 31.8182 40.8333C31.8182 40.0598 31.483 39.3179 30.8862 38.7709C30.2895 38.224 29.4802 37.9167 28.6364 37.9167ZM41.3636 37.9167C40.7343 37.9167 40.1192 38.0877 39.5959 38.4082C39.0727 38.7287 38.6648 39.1842 38.424 39.7172C38.1832 40.2501 38.1202 40.8366 38.243 41.4023C38.3657 41.9681 38.6688 42.4878 39.1138 42.8957C39.5587 43.3036 40.1257 43.5814 40.7429 43.694C41.3601 43.8065 41.9999 43.7487 42.5813 43.528C43.1627 43.3072 43.6596 42.9334 44.0092 42.4538C44.3588 41.9741 44.5455 41.4102 44.5455 40.8333C44.5455 40.0598 44.2102 39.3179 43.6135 38.7709C43.0168 38.224 42.2075 37.9167 41.3636 37.9167ZM15.9091 49.5833C15.2798 49.5833 14.6646 49.7544 14.1414 50.0749C13.6181 50.3954 13.2103 50.8509 12.9695 51.3838C12.7287 51.9168 12.6656 52.5032 12.7884 53.069C12.9112 53.6348 13.2142 54.1545 13.6592 54.5624C14.1042 54.9703 14.6711 55.2481 15.2883 55.3606C15.9056 55.4732 16.5453 55.4154 17.1267 55.1946C17.7081 54.9739 18.2051 54.6001 18.5547 54.1204C18.9043 53.6408 19.0909 53.0769 19.0909 52.5C19.0909 51.7265 18.7557 50.9846 18.159 50.4376C17.5623 49.8906 16.753 49.5833 15.9091 49.5833ZM28.6364 49.5833C28.0071 49.5833 27.3919 49.7544 26.8686 50.0749C26.3454 50.3954 25.9376 50.8509 25.6967 51.3838C25.4559 51.9168 25.3929 52.5032 25.5157 53.069C25.6385 53.6348 25.9415 54.1545 26.3865 54.5624C26.8315 54.9703 27.3984 55.2481 28.0156 55.3606C28.6328 55.4732 29.2726 55.4154 29.854 55.1946C30.4354 54.9739 30.9323 54.6001 31.2819 54.1204C31.6316 53.6408 31.8182 53.0769 31.8182 52.5C31.8182 51.7265 31.483 50.9846 30.8862 50.4376C30.2895 49.8906 29.4802 49.5833 28.6364 49.5833ZM54.0909 37.9167C53.4616 37.9167 52.8464 38.0877 52.3232 38.4082C51.7999 38.7287 51.3921 39.1842 51.1513 39.7172C50.9105 40.2501 50.8475 40.8366 50.9702 41.4023C51.093 41.9681 51.396 42.4878 51.841 42.8957C52.286 43.3036 52.853 43.5814 53.4702 43.694C54.0874 43.8065 54.7271 43.7487 55.3085 43.528C55.8899 43.3072 56.3869 42.9334 56.7365 42.4538C57.0861 41.9741 57.2727 41.4102 57.2727 40.8333C57.2727 40.0598 56.9375 39.3179 56.3408 38.7709C55.7441 38.224 54.9348 37.9167 54.0909 37.9167ZM57.2727 52.5C57.2727 51.7265 56.9375 50.9846 56.3408 50.4376C55.7441 49.8906 54.9348 49.5833 54.0909 49.5833H41.3636C40.5198 49.5833 39.7105 49.8906 39.1138 50.4376C38.517 50.9846 38.1818 51.7265 38.1818 52.5C38.1818 53.2735 38.517 54.0154 39.1138 54.5624C39.7105 55.1094 40.5198 55.4167 41.3636 55.4167H54.0909C54.9348 55.4167 55.7441 55.1094 56.3408 54.5624C56.9375 54.0154 57.2727 53.2735 57.2727 52.5Z" fill="white"/>
</svg>
