<svg width="70" height="70" viewBox="0 0 70 70" fill="none" xmlns="http://www.w3.org/2000/svg">
<path d="M44.5475 70C42.7879 70 41.3655 68.6963 41.3655 67.0835V63.0062C41.3655 58.6168 43.927 54.6853 48.0476 52.7517C57.6635 48.2311 63.6393 39.2774 63.6393 29.3816C63.6393 19.305 57.5044 10.2784 47.634 5.82193L47.7294 23.3356C47.7294 29.7695 42.021 35.0017 35.0016 35.0017C27.9822 35.0017 22.2737 29.7695 22.2737 23.3356V5.87151C12.4987 10.2784 6.36393 19.305 6.36393 29.3816C6.36393 39.2774 12.3397 48.2311 21.9555 52.7517C26.0762 54.6853 28.6377 58.6168 28.6377 63.0062V67.0835C28.6377 68.6963 27.2153 70 25.4557 70C23.6961 70 22.2737 68.6963 22.2737 67.0835V63.0062C22.2737 60.8509 21.0105 58.8618 19.0536 57.9431C7.3026 52.4192 0 41.4764 0 29.3845C0 17.071 7.49352 6.03483 19.5563 0.586768C21.4973 -0.288189 23.7597 -0.180278 25.6053 0.881336C27.5049 1.96337 28.6377 3.82994 28.6377 5.87151V23.3356C28.6377 26.5526 31.4919 29.1687 35.0016 29.1687C38.5113 29.1687 41.3655 26.5526 41.3655 23.3356V5.87151C41.3655 3.82994 42.4983 1.96337 44.3979 0.881336C46.2466 -0.174445 48.5122 -0.282356 50.4437 0.586768C62.5065 6.03483 70 17.068 70 29.3816C70 41.4735 62.6974 52.4163 50.9464 57.9402C48.9927 58.8589 47.7263 60.848 47.7263 63.0033V67.0806C47.7263 68.6934 46.3039 69.9971 44.5443 69.9971L44.5475 70Z" fill="white"/>
</svg>
